<svg id="visual" viewBox="0 0 1800 700" width="1800" height="700" xmlns="http://www.w3.org/2000/svg" xmlns:xlink="http://www.w3.org/1999/xlink" version="1.1"><path d="M0 50L17.7 53.5C35.3 57 70.7 64 106 64C141.3 64 176.7 57 212 54.7C247.3 52.3 282.7 54.7 318 62.8C353.3 71 388.7 85 423.8 83.8C459 82.7 494 66.3 529.2 65.2C564.3 64 599.7 78 635 82.7C670.3 87.3 705.7 82.7 741 81.5C776.3 80.3 811.7 82.7 847 76.8C882.3 71 917.7 57 953 59.3C988.3 61.7 1023.7 80.3 1059 83.8C1094.3 87.3 1129.7 75.7 1165 75.7C1200.3 75.7 1235.7 87.3 1270.8 87.3C1306 87.3 1341 75.7 1376.2 71C1411.3 66.3 1446.7 68.7 1482 66.3C1517.3 64 1552.7 57 1588 53.5C1623.3 50 1658.7 50 1694 50C1729.3 50 1764.7 50 1782.3 50L1800 50L1800 0L1782.3 0C1764.7 0 1729.3 0 1694 0C1658.7 0 1623.3 0 1588 0C1552.7 0 1517.3 0 1482 0C1446.7 0 1411.3 0 1376.2 0C1341 0 1306 0 1270.8 0C1235.7 0 1200.3 0 1165 0C1129.7 0 1094.3 0 1059 0C1023.7 0 988.3 0 953 0C917.7 0 882.3 0 847 0C811.7 0 776.3 0 741 0C705.7 0 670.3 0 635 0C599.7 0 564.3 0 529.2 0C494 0 459 0 423.8 0C388.7 0 353.3 0 318 0C282.7 0 247.3 0 212 0C176.7 0 141.3 0 106 0C70.7 0 35.3 0 17.7 0L0 0Z" fill="#6198ff"></path><path d="M0 85L17.7 88.5C35.3 92 70.7 99 106 97.8C141.3 96.7 176.7 87.3 212 86.2C247.3 85 282.7 92 318 100.2C353.3 108.3 388.7 117.7 423.8 113C459 108.3 494 89.7 529.2 90.8C564.3 92 599.7 113 635 121.2C670.3 129.3 705.7 124.7 741 123.5C776.3 122.3 811.7 124.7 847 120C882.3 115.3 917.7 103.7 953 104.8C988.3 106 1023.7 120 1059 118.8C1094.3 117.7 1129.7 101.3 1165 103.7C1200.3 106 1235.7 127 1270.8 128.2C1306 129.3 1341 110.7 1376.2 103.7C1411.3 96.7 1446.7 101.3 1482 101.3C1517.3 101.3 1552.7 96.7 1588 94.3C1623.3 92 1658.7 92 1694 90.8C1729.3 89.7 1764.7 87.3 1782.3 86.2L1800 85L1800 48L1782.3 48C1764.7 48 1729.3 48 1694 48C1658.7 48 1623.3 48 1588 51.5C1552.7 55 1517.3 62 1482 64.3C1446.7 66.7 1411.3 64.3 1376.2 69C1341 73.7 1306 85.3 1270.8 85.3C1235.7 85.3 1200.3 73.7 1165 73.7C1129.7 73.7 1094.3 85.3 1059 81.8C1023.7 78.3 988.3 59.7 953 57.3C917.7 55 882.3 69 847 74.8C811.7 80.7 776.3 78.3 741 79.5C705.7 80.7 670.3 85.3 635 80.7C599.7 76 564.3 62 529.2 63.2C494 64.3 459 80.7 423.8 81.8C388.7 83 353.3 69 318 60.8C282.7 52.7 247.3 50.3 212 52.7C176.7 55 141.3 62 106 62C70.7 62 35.3 55 17.7 51.5L0 48Z" fill="#3179ff"></path><path d="M0 183L17.7 190C35.3 197 70.7 211 106 202.8C141.3 194.7 176.7 164.3 212 155C247.3 145.7 282.7 157.3 318 174.8C353.3 192.3 388.7 215.7 423.8 213.3C459 211 494 183 529.2 181.8C564.3 180.7 599.7 206.3 635 214.5C670.3 222.7 705.7 213.3 741 214.5C776.3 215.7 811.7 227.3 847 218C882.3 208.7 917.7 178.3 953 174.8C988.3 171.3 1023.7 194.7 1059 204C1094.3 213.3 1129.7 208.7 1165 205.2C1200.3 201.7 1235.7 199.3 1270.8 190C1306 180.7 1341 164.3 1376.2 159.7C1411.3 155 1446.7 162 1482 167.8C1517.3 173.7 1552.7 178.3 1588 185.3C1623.3 192.3 1658.7 201.7 1694 206.3C1729.3 211 1764.7 211 1782.3 211L1800 211L1800 83L1782.3 84.2C1764.7 85.3 1729.3 87.7 1694 88.8C1658.7 90 1623.3 90 1588 92.3C1552.7 94.7 1517.3 99.3 1482 99.3C1446.7 99.3 1411.3 94.7 1376.2 101.7C1341 108.7 1306 127.3 1270.8 126.2C1235.7 125 1200.3 104 1165 101.7C1129.7 99.3 1094.3 115.7 1059 116.8C1023.7 118 988.3 104 953 102.8C917.7 101.7 882.3 113.3 847 118C811.7 122.7 776.3 120.3 741 121.5C705.7 122.7 670.3 127.3 635 119.2C599.7 111 564.3 90 529.2 88.8C494 87.7 459 106.3 423.8 111C388.7 115.7 353.3 106.3 318 98.2C282.7 90 247.3 83 212 84.2C176.7 85.3 141.3 94.7 106 95.8C70.7 97 35.3 90 17.7 86.5L0 83Z" fill="#005fee"></path><path d="M0 218L17.7 225C35.3 232 70.7 246 106 243.7C141.3 241.3 176.7 222.7 212 219.2C247.3 215.7 282.7 227.3 318 241.3C353.3 255.3 388.7 271.7 423.8 270.5C459 269.3 494 250.7 529.2 249.5C564.3 248.3 599.7 264.7 635 269.3C670.3 274 705.7 267 741 271.7C776.3 276.3 811.7 292.7 847 285.7C882.3 278.7 917.7 248.3 953 243.7C988.3 239 1023.7 260 1059 268.2C1094.3 276.3 1129.7 271.7 1165 267C1200.3 262.3 1235.7 257.7 1270.8 251.8C1306 246 1341 239 1376.2 239C1411.3 239 1446.7 246 1482 247.2C1517.3 248.3 1552.7 243.7 1588 244.8C1623.3 246 1658.7 253 1694 254.2C1729.3 255.3 1764.7 250.7 1782.3 248.3L1800 246L1800 209L1782.3 209C1764.7 209 1729.3 209 1694 204.3C1658.7 199.7 1623.3 190.3 1588 183.3C1552.7 176.3 1517.3 171.7 1482 165.8C1446.7 160 1411.3 153 1376.2 157.7C1341 162.3 1306 178.7 1270.8 188C1235.7 197.3 1200.3 199.7 1165 203.2C1129.7 206.7 1094.3 211.3 1059 202C1023.7 192.7 988.3 169.3 953 172.8C917.7 176.3 882.3 206.7 847 216C811.7 225.3 776.3 213.7 741 212.5C705.7 211.3 670.3 220.7 635 212.5C599.7 204.3 564.3 178.7 529.2 179.8C494 181 459 209 423.8 211.3C388.7 213.7 353.3 190.3 318 172.8C282.7 155.3 247.3 143.7 212 153C176.7 162.3 141.3 192.7 106 200.8C70.7 209 35.3 195 17.7 188L0 181Z" fill="#004fc3"></path><path d="M0 267L17.7 274C35.3 281 70.7 295 106 296.2C141.3 297.3 176.7 285.7 212 278.7C247.3 271.7 282.7 269.3 318 277.5C353.3 285.7 388.7 304.3 423.8 309C459 313.7 494 304.3 529.2 303.2C564.3 302 599.7 309 635 311.3C670.3 313.7 705.7 311.3 741 314.8C776.3 318.3 811.7 327.7 847 323C882.3 318.3 917.7 299.7 953 298.5C988.3 297.3 1023.7 313.7 1059 321.8C1094.3 330 1129.7 330 1165 326.5C1200.3 323 1235.7 316 1270.8 311.3C1306 306.7 1341 304.3 1376.2 300.8C1411.3 297.3 1446.7 292.7 1482 288C1517.3 283.3 1552.7 278.7 1588 281C1623.3 283.3 1658.7 292.7 1694 297.3C1729.3 302 1764.7 302 1782.3 302L1800 302L1800 244L1782.3 246.3C1764.7 248.7 1729.3 253.3 1694 252.2C1658.7 251 1623.3 244 1588 242.8C1552.7 241.7 1517.3 246.3 1482 245.2C1446.7 244 1411.3 237 1376.2 237C1341 237 1306 244 1270.8 249.8C1235.7 255.7 1200.3 260.3 1165 265C1129.7 269.7 1094.3 274.3 1059 266.2C1023.7 258 988.3 237 953 241.7C917.7 246.3 882.3 276.7 847 283.7C811.7 290.7 776.3 274.3 741 269.7C705.7 265 670.3 272 635 267.3C599.7 262.7 564.3 246.3 529.2 247.5C494 248.7 459 267.3 423.8 268.5C388.7 269.7 353.3 253.3 318 239.3C282.7 225.3 247.3 213.7 212 217.2C176.7 220.7 141.3 239.3 106 241.7C70.7 244 35.3 230 17.7 223L0 216Z" fill="#004cbb"></path><path d="M0 442L17.7 445.5C35.3 449 70.7 456 106 461.8C141.3 467.7 176.7 472.3 212 460.7C247.3 449 282.7 421 318 415.2C353.3 409.3 388.7 425.7 423.8 446.7C459 467.7 494 493.3 529.2 488.7C564.3 484 599.7 449 635 451.3C670.3 453.7 705.7 493.3 741 502.7C776.3 512 811.7 491 847 477C882.3 463 917.7 456 953 459.5C988.3 463 1023.7 477 1059 473.5C1094.3 470 1129.7 449 1165 453.7C1200.3 458.3 1235.7 488.7 1270.8 503.8C1306 519 1341 519 1376.2 517.8C1411.3 516.7 1446.7 514.3 1482 501.5C1517.3 488.7 1552.7 465.3 1588 458.3C1623.3 451.3 1658.7 460.7 1694 470C1729.3 479.3 1764.7 488.7 1782.3 493.3L1800 498L1800 300L1782.3 300C1764.7 300 1729.3 300 1694 295.3C1658.7 290.7 1623.3 281.3 1588 279C1552.7 276.7 1517.3 281.3 1482 286C1446.7 290.7 1411.3 295.3 1376.2 298.8C1341 302.3 1306 304.7 1270.8 309.3C1235.7 314 1200.3 321 1165 324.5C1129.7 328 1094.3 328 1059 319.8C1023.7 311.7 988.3 295.3 953 296.5C917.7 297.7 882.3 316.3 847 321C811.7 325.7 776.3 316.3 741 312.8C705.7 309.3 670.3 311.7 635 309.3C599.7 307 564.3 300 529.2 301.2C494 302.3 459 311.7 423.8 307C388.7 302.3 353.3 283.7 318 275.5C282.7 267.3 247.3 269.7 212 276.7C176.7 283.7 141.3 295.3 106 294.2C70.7 293 35.3 279 17.7 272L0 265Z" fill="#004fc3"></path><path d="M0 491L17.7 494.5C35.3 498 70.7 505 106 507.3C141.3 509.7 176.7 507.3 212 493.3C247.3 479.3 282.7 453.7 318 452.5C353.3 451.3 388.7 474.7 423.8 496.8C459 519 494 540 529.2 535.3C564.3 530.7 599.7 500.3 635 500.3C670.3 500.3 705.7 530.7 741 540C776.3 549.3 811.7 537.7 847 528.3C882.3 519 917.7 512 953 510.8C988.3 509.7 1023.7 514.3 1059 508.5C1094.3 502.7 1129.7 486.3 1165 489.8C1200.3 493.3 1235.7 516.7 1270.8 530.7C1306 544.7 1341 549.3 1376.2 549.3C1411.3 549.3 1446.7 544.7 1482 530.7C1517.3 516.7 1552.7 493.3 1588 491C1623.3 488.7 1658.7 507.3 1694 517.8C1729.3 528.3 1764.7 530.7 1782.3 531.8L1800 533L1800 496L1782.3 491.3C1764.7 486.7 1729.3 477.3 1694 468C1658.7 458.7 1623.3 449.3 1588 456.3C1552.7 463.3 1517.3 486.7 1482 499.5C1446.7 512.3 1411.3 514.7 1376.2 515.8C1341 517 1306 517 1270.8 501.8C1235.7 486.7 1200.3 456.3 1165 451.7C1129.7 447 1094.3 468 1059 471.5C1023.7 475 988.3 461 953 457.5C917.7 454 882.3 461 847 475C811.7 489 776.3 510 741 500.7C705.7 491.3 670.3 451.7 635 449.3C599.7 447 564.3 482 529.2 486.7C494 491.3 459 465.7 423.8 444.7C388.7 423.7 353.3 407.3 318 413.2C282.7 419 247.3 447 212 458.7C176.7 470.3 141.3 465.7 106 459.8C70.7 454 35.3 447 17.7 443.5L0 440Z" fill="#005fee"></path><path d="M0 666L17.7 663.7C35.3 661.3 70.7 656.7 106 655.5C141.3 654.3 176.7 656.7 212 654.3C247.3 652 282.7 645 318 647.3C353.3 649.7 388.7 661.3 423.8 667.2C459 673 494 673 529.2 667.2C564.3 661.3 599.7 649.7 635 646.2C670.3 642.7 705.7 647.3 741 650.8C776.3 654.3 811.7 656.7 847 655.5C882.3 654.3 917.7 649.7 953 652C988.3 654.3 1023.7 663.7 1059 664.8C1094.3 666 1129.7 659 1165 653.2C1200.3 647.3 1235.7 642.7 1270.8 643.8C1306 645 1341 652 1376.2 657.8C1411.3 663.7 1446.7 668.3 1482 664.8C1517.3 661.3 1552.7 649.7 1588 649.7C1623.3 649.7 1658.7 661.3 1694 662.5C1729.3 663.7 1764.7 654.3 1782.3 649.7L1800 645L1800 531L1782.3 529.8C1764.7 528.7 1729.3 526.3 1694 515.8C1658.7 505.3 1623.3 486.7 1588 489C1552.7 491.3 1517.3 514.7 1482 528.7C1446.7 542.7 1411.3 547.3 1376.2 547.3C1341 547.3 1306 542.7 1270.8 528.7C1235.7 514.7 1200.3 491.3 1165 487.8C1129.7 484.3 1094.3 500.7 1059 506.5C1023.7 512.3 988.3 507.7 953 508.8C917.7 510 882.3 517 847 526.3C811.7 535.7 776.3 547.3 741 538C705.7 528.7 670.3 498.3 635 498.3C599.7 498.3 564.3 528.7 529.2 533.3C494 538 459 517 423.8 494.8C388.7 472.7 353.3 449.3 318 450.5C282.7 451.7 247.3 477.3 212 491.3C176.7 505.3 141.3 507.7 106 505.3C70.7 503 35.3 496 17.7 492.5L0 489Z" fill="#3179ff"></path><path d="M0 701L17.7 701C35.3 701 70.7 701 106 701C141.3 701 176.7 701 212 701C247.3 701 282.7 701 318 701C353.3 701 388.7 701 423.8 701C459 701 494 701 529.2 701C564.3 701 599.7 701 635 701C670.3 701 705.7 701 741 701C776.3 701 811.7 701 847 701C882.3 701 917.7 701 953 701C988.3 701 1023.7 701 1059 701C1094.3 701 1129.7 701 1165 701C1200.3 701 1235.7 701 1270.8 701C1306 701 1341 701 1376.2 701C1411.3 701 1446.7 701 1482 701C1517.3 701 1552.7 701 1588 701C1623.3 701 1658.7 701 1694 701C1729.3 701 1764.7 701 1782.3 701L1800 701L1800 643L1782.3 647.7C1764.7 652.3 1729.3 661.7 1694 660.5C1658.7 659.3 1623.3 647.7 1588 647.7C1552.7 647.7 1517.3 659.3 1482 662.8C1446.7 666.3 1411.3 661.7 1376.2 655.8C1341 650 1306 643 1270.8 641.8C1235.7 640.7 1200.3 645.3 1165 651.2C1129.7 657 1094.3 664 1059 662.8C1023.7 661.7 988.3 652.3 953 650C917.7 647.7 882.3 652.3 847 653.5C811.7 654.7 776.3 652.3 741 648.8C705.7 645.3 670.3 640.7 635 644.2C599.7 647.7 564.3 659.3 529.2 665.2C494 671 459 671 423.8 665.2C388.7 659.3 353.3 647.7 318 645.3C282.7 643 247.3 650 212 652.3C176.7 654.7 141.3 652.3 106 653.5C70.7 654.7 35.3 659.3 17.7 661.7L0 664Z" fill="#6198ff"></path></svg>